<?xml version="1.0" standalone="no"?>
<!DOCTYPE svg PUBLIC "-//W3C//DTD SVG 20010904//EN"
 "http://www.w3.org/TR/2001/REC-SVG-20010904/DTD/svg10.dtd">
<svg version="1.0" xmlns="http://www.w3.org/2000/svg"
 width="507.000000pt" height="149.000000pt" viewBox="0 0 507.000000 149.000000"
 preserveAspectRatio="xMidYMid meet">

<g transform="translate(0.000000,149.000000) scale(0.100000,-0.100000)"
fill="#000000" stroke="none">
<path d="M555 1260 c-4 -6 5 -10 19 -10 l26 0 0 -290 c0 -280 -1 -290 -19
-290 -11 0 -23 -4 -26 -10 -4 -6 27 -10 84 -10 54 0 91 4 91 10 0 6 -9 10 -20
10 -18 0 -20 7 -20 83 l0 82 50 -78 c28 -42 50 -80 50 -82 0 -3 -9 -5 -20 -5
-11 0 -20 -4 -20 -10 0 -6 72 -10 195 -10 123 0 195 4 195 10 0 6 -18 10 -40
10 l-40 0 0 125 c0 96 4 132 17 160 9 19 20 35 25 35 4 0 11 0 16 0 4 1 9 -16
12 -36 9 -65 71 -73 78 -10 9 71 -73 104 -123 50 l-25 -27 0 27 c0 25 -1 26
-65 26 -37 0 -65 -4 -65 -10 0 -5 9 -10 20 -10 19 0 20 -7 20 -165 l0 -165
-34 0 c-33 0 -37 5 -109 122 l-75 122 35 43 c24 29 43 43 59 43 13 0 24 5 24
10 0 6 -25 10 -55 10 -51 0 -76 -14 -39 -22 13 -2 5 -17 -32 -60 -27 -32 -52
-58 -56 -58 -4 0 -8 88 -8 195 l0 195 -59 0 c-33 0 -63 -4 -66 -10z"/>
<path d="M3265 1260 c-4 -6 5 -10 19 -10 l26 0 0 -252 c0 -221 -2 -257 -18
-288 -11 -23 -25 -36 -41 -38 -45 -7 -51 17 -51 190 l0 158 -66 0 c-41 0 -63
-4 -59 -10 3 -5 15 -10 26 -10 18 0 19 -8 19 -125 0 -92 -4 -134 -15 -155 -19
-37 -50 -47 -76 -24 -17 15 -19 32 -19 171 l0 153 -65 0 c-37 0 -65 -4 -65
-10 0 -5 9 -10 20 -10 19 0 20 -7 20 -127 0 -146 11 -196 46 -219 32 -22 98
-13 130 17 l24 22 27 -27 c24 -24 34 -27 71 -23 29 3 53 14 72 32 l29 28 36
-32 c68 -59 180 -36 228 47 28 47 34 150 13 205 -32 85 -115 130 -171 93 l-25
-16 0 135 0 135 -64 0 c-36 0 -68 -4 -71 -10z m244 -286 c11 -14 23 -46 27
-72 8 -55 -10 -176 -32 -209 -18 -28 -64 -31 -86 -5 -36 40 -33 257 3 293 27
27 64 24 88 -7z"/>
<path d="M2262 1133 c-61 -30 -79 -101 -42 -173 11 -22 20 -41 20 -44 0 -2
-16 -14 -36 -27 -45 -28 -74 -74 -74 -119 0 -53 -30 -105 -60 -105 l-25 0 -3
168 -2 167 35 0 c19 0 35 5 35 10 0 6 -16 10 -35 10 l-35 0 0 55 0 55 -45 0
-45 0 0 -55 c0 -48 -2 -55 -20 -55 -11 0 -20 -4 -20 -10 0 -5 9 -10 21 -10 20
0 20 -4 17 -144 -3 -126 -5 -147 -22 -165 -13 -14 -29 -21 -45 -19 l-26 3 -3
173 -2 172 -65 0 c-37 0 -65 -4 -65 -10 0 -5 9 -10 20 -10 19 0 20 -7 20 -124
0 -135 -7 -169 -40 -186 -17 -9 -26 -8 -46 5 -24 15 -24 17 -24 170 l0 155
-65 0 c-37 0 -65 -4 -65 -10 0 -5 9 -10 20 -10 19 0 20 -7 20 -143 0 -161 -9
-191 -58 -185 l-27 3 -5 140 c-4 113 -9 146 -23 168 -34 52 -120 63 -178 24
-29 -19 -34 -29 -34 -62 0 -37 2 -40 29 -40 30 0 35 7 50 78 6 24 11 28 34 25
26 -3 27 -5 30 -70 l3 -67 -79 -40 c-85 -43 -92 -51 -92 -111 0 -54 38 -84 98
-77 24 2 51 12 61 21 16 15 19 15 37 -5 25 -28 103 -22 138 10 l24 22 25 -25
c18 -18 37 -26 62 -26 39 0 91 22 98 42 3 9 14 4 34 -14 20 -20 40 -28 64 -28
32 0 75 21 90 43 4 5 18 -3 32 -17 44 -44 122 -33 151 21 13 26 14 26 25 6 32
-61 160 -85 229 -43 31 19 35 19 82 4 32 -10 63 -14 85 -10 38 7 48 26 14 26
-23 0 -55 15 -81 38 -17 14 -16 16 1 41 10 14 28 45 40 69 14 28 34 48 56 59
19 9 35 23 35 30 0 16 -61 18 -77 2 -7 -7 -18 -3 -36 15 -31 30 -67 33 -90 8
-33 -36 -16 -92 28 -92 18 0 17 2 -5 13 -14 7 -26 21 -28 32 -4 19 22 45 45
45 25 0 53 -39 53 -74 0 -33 -34 -96 -57 -103 -12 -4 -67 65 -99 123 l-17 32
37 32 c85 75 89 163 11 196 -44 18 -72 17 -113 -3z m92 -39 c9 -8 16 -30 16
-48 0 -33 -35 -96 -56 -103 -11 -4 -54 83 -54 109 0 47 62 75 94 42z m202
-209 c-29 -27 -36 -30 -36 -16 0 15 30 41 47 41 12 0 8 -7 -11 -25z m-229 -94
l62 -90 -24 -15 c-36 -24 -95 -20 -130 8 -27 22 -30 30 -30 79 0 45 5 60 24
81 14 14 27 26 31 26 3 0 34 -40 67 -89z m-947 -20 c0 -51 -4 -74 -16 -86 -24
-23 -66 -15 -83 16 -21 38 0 82 53 114 22 14 42 25 44 25 1 0 2 -31 2 -69z"/>
<path d="M2957 1134 c-15 -15 -7 -53 13 -59 27 -8 52 12 48 39 -3 21 -46 35
-61 20z"/>
<path d="M3096 1124 c-10 -25 -7 -33 13 -44 29 -15 51 -2 51 31 0 25 -4 29
-29 29 -17 0 -31 -6 -35 -16z"/>
<path d="M2782 1019 c-11 -4 -27 -17 -34 -29 -17 -27 -28 -25 -28 5 0 24 -2
25 -66 25 -41 0 -63 -4 -59 -10 3 -5 15 -10 26 -10 18 0 19 -8 19 -165 0 -158
-1 -165 -20 -165 -11 0 -20 -4 -20 -10 0 -6 40 -10 100 -10 60 0 100 4 100 10
0 6 -18 10 -40 10 l-40 0 0 108 c0 111 8 157 35 199 21 32 43 16 47 -35 3 -34
6 -37 33 -37 28 0 30 3 33 38 5 59 -36 94 -86 76z"/>
<path d="M3712 1000 c-71 -43 -96 -182 -49 -271 57 -108 201 -118 249 -18 20
40 12 60 -10 27 -23 -35 -43 -48 -75 -48 -61 0 -97 48 -97 130 l0 40 73 0 c39
0 82 3 95 6 44 12 18 94 -44 135 -38 25 -100 24 -142 -1z m123 -25 c17 -16 25
-35 25 -60 l0 -35 -65 0 c-64 0 -65 0 -64 28 1 40 12 63 40 78 33 18 36 18 64
-11z"/>
<path d="M3935 1010 c3 -5 15 -10 26 -10 18 0 19 -8 19 -165 l0 -165 -25 0
c-14 0 -25 -4 -25 -10 0 -6 37 -10 90 -10 53 0 90 4 90 10 0 6 -11 10 -25 10
l-25 0 0 115 c0 124 10 160 52 189 28 20 33 20 52 0 13 -13 16 -42 16 -160 0
-137 -1 -144 -20 -144 -11 0 -20 -4 -20 -10 0 -6 35 -10 85 -10 50 0 85 4 85
10 0 6 -9 10 -20 10 -19 0 -20 7 -20 130 0 180 -19 220 -104 220 -22 0 -45 -9
-64 -25 -17 -14 -33 -25 -36 -25 -3 0 -6 11 -6 25 0 24 -2 25 -66 25 -41 0
-63 -4 -59 -10z"/>
<path d="M2057 473 c-15 -14 -6 -40 18 -51 42 -19 32 -36 -20 -33 l-20 1 20
-9 c24 -10 55 4 55 25 0 8 -11 20 -25 26 -27 12 -28 34 -2 32 9 -1 14 2 11 7
-6 11 -28 12 -37 2z"/>
<path d="M2144 455 c-28 -43 13 -101 54 -75 16 11 16 11 0 6 -31 -9 -48 4 -48
39 0 33 21 52 42 38 7 -3 8 -1 4 5 -12 19 -34 14 -52 -13z"/>
<path d="M2243 430 c0 -30 2 -45 4 -32 3 15 11 22 28 22 17 0 25 -7 28 -22 2
-13 4 2 5 32 0 37 -2 47 -7 30 -4 -15 -15 -26 -28 -28 -17 -3 -22 3 -26 25 -2
15 -4 3 -4 -27z"/>
<path d="M2352 468 c-26 -26 -4 -98 29 -98 13 0 49 38 49 53 0 21 -30 57 -49
57 -9 0 -22 -5 -29 -12z m42 -4 c21 -8 21 -58 0 -75 -14 -11 -18 -10 -30 6
-17 23 -18 47 -2 63 14 14 12 14 32 6z"/>
<path d="M2461 428 c2 -51 2 -52 8 -14 l6 39 17 -36 c25 -52 38 -46 36 16 l-1
52 -6 -45 -6 -45 -23 43 c-12 23 -25 42 -27 42 -3 0 -4 -24 -4 -52z"/>
<path d="M2571 428 c1 -29 4 -43 6 -31 2 13 13 24 26 26 l22 4 -22 2 c-16 1
-23 7 -23 20 0 12 8 21 23 24 19 4 18 4 -5 6 -27 1 -28 0 -27 -51z"/>
<path d="M2661 428 c1 -29 4 -43 6 -30 5 28 17 28 34 1 13 -19 14 -18 15 23 2
44 -7 58 -38 58 -15 0 -18 -9 -17 -52z m47 19 c2 -12 -3 -17 -17 -17 -15 0
-21 6 -21 21 0 25 33 22 38 -4z"/>
<path d="M2833 430 c10 -52 30 -63 34 -19 l2 24 -8 -25 -7 -25 -7 25 c-4 14
-7 35 -7 48 0 12 -4 22 -9 22 -4 0 -4 -23 2 -50z"/>
<path d="M2878 474 c-11 -10 -10 -36 1 -30 5 3 12 -10 15 -29 7 -35 23 -47 31
-22 8 27 16 92 11 86 -4 -3 -10 -26 -15 -50 l-7 -44 -15 48 c-8 27 -17 45 -21
41z"/>
<path d="M2973 430 c0 -30 2 -43 4 -27 2 15 2 39 0 55 -2 15 -4 2 -4 -28z"/>
<path d="M3023 430 c0 -30 2 -43 4 -27 2 15 2 39 0 55 -2 15 -4 2 -4 -28z"/>
<path d="M3102 428 l1 -53 4 45 c3 24 10 48 16 52 8 5 6 8 -5 8 -15 0 -18 -8
-16 -52z"/>
<path d="M3200 430 c0 -27 4 -50 9 -50 5 0 7 9 4 20 -4 16 0 20 18 21 l24 0
-23 10 c-29 11 -24 31 9 40 21 6 21 7 -8 8 -33 1 -33 1 -33 -49z"/>
<path d="M3291 428 c0 -42 2 -48 9 -30 12 27 27 28 35 2 3 -11 11 -20 16 -20
6 0 7 6 1 17 -7 11 -6 23 1 35 9 13 9 20 0 29 -8 8 -11 6 -10 -7 1 -13 -6 -20
-20 -22 -28 -4 -31 22 -5 37 15 9 15 10 -5 11 -21 0 -23 -4 -22 -52z"/>
<path d="M3470 430 c0 -27 4 -50 9 -50 5 0 7 9 4 20 -4 16 0 20 21 20 26 0 37
-23 16 -33 -6 -3 -5 -4 2 -3 8 2 13 18 13 40 0 42 -10 56 -18 26 -3 -11 -12
-20 -21 -20 -22 0 -20 37 2 43 13 4 11 5 -5 6 -21 1 -23 -3 -23 -49z"/>
<path d="M3573 430 c0 -30 2 -43 4 -27 2 15 2 39 0 55 -2 15 -4 2 -4 -28z"/>
<path d="M3632 468 c-37 -45 0 -113 48 -88 23 12 28 68 8 88 -16 16 -43 15
-56 0z m46 -10 c30 -30 -1 -94 -33 -68 -25 20 -13 80 15 80 3 0 11 -5 18 -12z"/>
<path d="M3742 468 c-20 -20 -15 -76 7 -88 27 -14 51 -2 51 26 0 16 -5 24 -17
23 -11 0 -13 -3 -5 -6 15 -6 16 -29 2 -38 -16 -10 -40 14 -40 40 0 28 24 49
45 41 9 -3 13 -2 10 4 -8 14 -38 13 -53 -2z"/>
<path d="M3838 430 c-9 -27 -12 -50 -7 -50 5 0 9 5 9 10 0 14 47 12 54 -2 9
-19 -3 37 -14 67 -14 37 -24 31 -42 -25z m41 -12 c1 -5 -6 -8 -14 -8 -15 0
-21 31 -8 44 7 6 20 -17 22 -36z"/>
<path d="M3931 428 c1 -29 4 -43 6 -30 2 12 8 22 12 22 5 0 16 -10 25 -22 13
-18 16 -19 12 -5 -3 10 -1 28 5 39 9 18 8 24 -7 35 -10 7 -26 13 -36 13 -15 0
-18 -8 -17 -52z m47 19 c2 -12 -3 -17 -17 -17 -15 0 -21 6 -21 21 0 25 33 22
38 -4z"/>
<path d="M4033 468 c9 -7 18 -31 20 -53 l4 -40 1 47 c2 35 6 48 20 51 9 3 -1
5 -22 6 -34 1 -37 -1 -23 -11z"/>
<path d="M4121 428 c1 -29 4 -43 6 -31 2 13 13 24 26 26 l22 4 -22 2 c-16 1
-23 7 -23 20 0 12 8 21 23 24 19 4 18 4 -5 6 -27 1 -28 0 -27 -51z"/>
<path d="M4201 428 c2 -52 2 -52 8 -13 l6 40 23 -37 c13 -21 28 -38 33 -38 5
0 8 24 7 53 l-1 52 -6 -45 -6 -45 -24 43 c-14 23 -28 42 -33 42 -4 0 -7 -24
-7 -52z"/>
<path d="M3148 458 c17 -17 15 -44 -4 -62 -14 -14 -14 -16 0 -16 9 0 18 11 22
24 7 30 -3 66 -19 66 -8 0 -8 -3 1 -12z"/>
<path d="M2750 379 c0 -5 5 -7 10 -4 6 3 10 8 10 11 0 2 -4 4 -10 4 -5 0 -10
-5 -10 -11z"/>
<path d="M4310 379 c0 -5 5 -7 10 -4 6 3 10 8 10 11 0 2 -4 4 -10 4 -5 0 -10
-5 -10 -11z"/>
</g>
</svg>
